# xmcd CD database file
#
# Track frame offsets:
#	150
#	10411
#	21589
#	33125
#	45629
#	58539
#	71619
#	85159
#	99238
#	113288
#	127714
#	142886
#	158660
#	175276
#	192609
#	210906
#	230265
#	250911
#	272587
#	300831
#
# Disc length: 4414 seconds
#
# Revision: 0
# Processed by: cddbd v1.5PL3 Copyright (c) Steve Scherf et al.
# Submitted via: CDex 1.51
#
DISCID=f3113c14
DTITLE=Believe In The Mood - Believe In The Mood
DYEAR=1900
DGENRE=Jazz
TTITLE0=Wes Montgomery/ The Shadow of your Smile
TTITLE1=Woody Herman/ Lullabye of Birdland
TTITLE2=Tito Puente/ Black Orchid
TTITLE3=Woody Herman/ St. Louis Blues
TTITLE4=Woody Herman/ Carolina in the Morning
TTITLE5=Brownie/ The Blues had a Baby
TTITLE6=Barney Bigard Sextet/ Sweet M
TTITLE7=Wes Montgomery/ Eleanor Rigby
TTITLE8=Otis Rush/ I can't quit you Baby
TTITLE9=Woody Herman/ Northwest Passage
TTITLE10=Woody Herman/  Laura
TTITLE11=Woody Herman/ Sister Sadie
TTITLE12=Taj Mahal/ Bright Lights Big City
TTITLE13=William Clarke/ Lollipop Mama
TTITLE14=Willie Clayton/ Equal Opportunity
TTITLE15=Woody Herman/ Four Brothers
TTITLE16=Taj Mahal/ Kulanjan
TTITLE17=Wes Montgomery/ Summertime
TTITLE18=Wes Montgomery/ Fried Buzzard
TTITLE19=Wes Montgomery/ Bumpin
EXTD=
EXTT0=
EXTT1=
EXTT2=
EXTT3=
EXTT4=
EXTT5=
EXTT6=
EXTT7=
EXTT8=
EXTT9=
EXTT10=
EXTT11=
EXTT12=
EXTT13=
EXTT14=
EXTT15=
EXTT16=
EXTT17=
EXTT18=
EXTT19=
PLAYORDER=
